<?xml version="1.0" standalone="no"?>
<!DOCTYPE svg PUBLIC "-//W3C//DTD SVG 20010904//EN"
 "http://www.w3.org/TR/2001/REC-SVG-20010904/DTD/svg10.dtd">
<svg version="1.0" xmlns="http://www.w3.org/2000/svg"
 width="700.000000pt" height="700.000000pt" viewBox="0 0 700.000000 700.000000"
 preserveAspectRatio="xMidYMid meet">
<metadata>
Created by potrace 1.11, written by Peter Selinger 2001-2013
</metadata>
<g transform="translate(0.000000,700.000000) scale(0.100000,-0.100000)"
fill="#000000" stroke="none">
<path d="M1168 6804 c-427 -66 -788 -375 -928 -792 -63 -189 -60 -57 -60
-2512 0 -2459 -3 -2323 61 -2515 140 -416 505 -725 936 -790 147 -22 4499 -22
4646 0 501 75 907 481 982 982 23 151 22 4512 0 4653 -82 500 -475 893 -975
975 -84 13 -365 15 -2335 14 -1833 -1 -2256 -3 -2327 -15z m4687 -367 c92 -28
234 -100 300 -154 128 -104 231 -259 277 -419 l23 -79 0 -2285 c0 -2578 8
-2324 -80 -2505 -80 -164 -207 -291 -370 -370 -181 -88 73 -80 -2505 -80
-2578 0 -2324 -8 -2505 80 -163 79 -292 208 -370 370 -88 182 -80 -72 -80
2505 0 2158 1 2289 18 2350 82 302 326 533 627 595 53 11 476 13 2335 11 2151
-1 2273 -2 2330 -19z"/>
<path d="M3180 4700 l0 -880 -880 0 -880 0 0 -320 0 -320 880 0 880 0 0 -880
0 -880 320 0 320 0 0 880 0 880 880 0 880 0 0 320 0 320 -880 0 -880 0 0 880
0 880 -320 0 -320 0 0 -880z"/>
</g>
</svg>
