<?xml version="1.0" encoding="UTF-8" standalone="no"?>
<!-- Created with Inkscape (http://www.inkscape.org/) -->

<svg
   width="158.00418mm"
   height="66.780991mm"
   viewBox="0 0 158.00418 66.780991"
   version="1.1"
   id="svg827"
   inkscape:version="1.1.2 (0a00cf5339, 2022-02-04)"
   sodipodi:docname="boat_and_tower_map.svg"
   xmlns:inkscape="http://www.inkscape.org/namespaces/inkscape"
   xmlns:sodipodi="http://sodipodi.sourceforge.net/DTD/sodipodi-0.dtd"
   xmlns="http://www.w3.org/2000/svg"
   xmlns:svg="http://www.w3.org/2000/svg">
  <sodipodi:namedview
     id="namedview829"
     pagecolor="#ffffff"
     bordercolor="#666666"
     borderopacity="1.0"
     inkscape:pageshadow="2"
     inkscape:pageopacity="0.0"
     inkscape:pagecheckerboard="0"
     inkscape:document-units="mm"
     showgrid="false"
     inkscape:zoom="1.6017536"
     inkscape:cx="68.98689"
     inkscape:cy="80.224574"
     inkscape:window-width="3014"
     inkscape:window-height="1657"
     inkscape:window-x="3130"
     inkscape:window-y="34"
     inkscape:window-maximized="1"
     inkscape:current-layer="layer1"
     fit-margin-top="0"
     fit-margin-left="0"
     fit-margin-right="0"
     fit-margin-bottom="0" />
  <defs
     id="defs824">
    <inkscape:path-effect
       effect="spiro"
       id="path-effect985"
       is_visible="true"
       lpeversion="1" />
    <inkscape:path-effect
       effect="spiro"
       id="path-effect880"
       is_visible="true"
       lpeversion="1" />
    <inkscape:path-effect
       effect="spiro"
       id="path-effect923"
       is_visible="true"
       lpeversion="1" />
  </defs>
  <g
     inkscape:label="Layer 1"
     inkscape:groupmode="layer"
     id="layer1"
     transform="translate(-20.747231,-120.58007)">
    <rect
       style="color:#000000;overflow:visible;fill:none;fill-opacity:1;stroke:#000000;stroke-width:1.32292;stroke-linecap:round;stroke-linejoin:round"
       id="rect1360"
       width="56.232655"
       height="56.232655"
       x="121.8573"
       y="125.85423"
       rx="4.2816992" />
    <g
       aria-label="Outpost"
       id="text18908"
       style="font-size:7.05556px;line-height:125%;font-family:Kalam;-inkscape-font-specification:Kalam;letter-spacing:0px;word-spacing:0px;fill:none;stroke:#000000;stroke-width:0.264583px">
      <path
         d="m 130.05261,136.90222 q 0.46566,-0.41628 0.79728,-1.02305 0.33161,-0.61384 0.33161,-1.15712 0,-0.54327 -0.21167,-0.88194 -0.20461,-0.33867 -0.48683,-0.33867 -0.28223,0 -0.70556,0.43745 -0.42333,0.43744 -0.762,1.15005 -0.33867,0.70556 -0.33867,1.35467 0,0.38806 0.16934,0.635 0.16933,0.23989 0.39511,0.23989 0.35278,0 0.81139,-0.41628 z m -0.85373,0.97367 q -0.46566,0 -0.81844,-0.45861 -0.34572,-0.45861 -0.34572,-0.93134 0,-0.64205 0.23283,-1.30527 0.23989,-0.66323 0.59267,-1.15712 0.35983,-0.49389 0.79022,-0.80433 0.43039,-0.3175 0.79728,-0.3175 0.59267,0 0.98778,0.54328 0.39511,0.53622 0.39511,1.21355 0,0.67734 -0.37395,1.42523 -0.37394,0.74083 -1.00189,1.27 -0.62088,0.52211 -1.25589,0.52211 z"
         style="fill:#000000"
         id="path16458" />
      <path
         d="m 134.69516,134.588 q 0.0282,-0.11289 0.0564,-0.15522 0.0282,-0.0423 0.11995,-0.0423 0.0988,0 0.23283,0.18345 0.14111,0.18344 0.14111,0.35278 0,0.0917 -0.31044,1.08655 -0.31045,0.99484 -0.47978,1.58045 -0.0847,0.29633 -0.23989,0.29633 -0.0917,0 -0.15522,-0.0776 -0.0635,-0.0776 -0.0635,-0.28222 0,-0.20461 0.16228,-0.74084 -0.29634,0.47978 -0.64206,0.79023 -0.34572,0.31044 -0.635,0.31044 -0.28222,0 -0.53622,-0.26811 -0.254,-0.26811 -0.254,-0.55033 0,-0.67028 0.38805,-1.67217 0.39511,-1.00895 0.65617,-1.00895 0.127,0 0.21872,0.11995 0.0988,0.11289 0.0988,0.26105 0,0.0635 -0.1905,0.45861 -0.1905,0.38806 -0.381,0.91723 -0.1905,0.52211 -0.1905,0.91722 0,0.11289 0.0706,0.1905 0.0705,0.0706 0.16933,0.0706 0.26811,0 0.635,-0.47273 0.37394,-0.47272 0.67733,-1.10066 0.30339,-0.62795 0.45156,-1.16417 z"
         style="fill:#000000"
         id="path16460" />
      <path
         d="m 136.38143,137.18444 q 0,0.13406 0.15522,0.13406 0.26811,0 0.64911,-0.14817 0.38806,-0.15522 0.43039,-0.15522 0.127,0 0.127,0.13406 0,0.20461 -0.42333,0.47272 -0.41628,0.26811 -0.762,0.26811 -0.33867,0 -0.56445,-0.18344 -0.22577,-0.1905 -0.22577,-0.38806 0,-0.19756 0.0847,-0.50094 0.0847,-0.31045 0.23989,-0.81139 0.16228,-0.508 0.254,-0.83962 -0.33161,0.0776 -0.4445,0.0776 -0.11289,0 -0.22578,-0.11289 -0.10583,-0.11995 -0.10583,-0.22578 0,-0.16933 0.91722,-0.32456 0.127,-0.58561 0.127,-1.03716 0,-0.21167 0.14111,-0.21167 0.11995,0 0.29634,0.15522 0.17639,0.14817 0.17639,0.33867 0,0.1905 -0.11995,0.67028 0.40217,-0.0353 0.64206,-0.0353 0.42333,0 0.42333,0.18344 0,0.10584 -0.23283,0.17639 -0.22578,0.0706 -0.95956,0.21872 -0.14816,0.55739 -0.37394,1.27706 -0.22578,0.71261 -0.22578,0.86783 z"
         style="fill:#000000"
         id="path16462" />
      <path
         d="m 140.62887,134.36928 q 0.30339,0 0.52211,0.38805 0.22578,0.38806 0.22578,0.80434 0,0.40922 -0.23989,0.8255 -0.23989,0.40922 -0.59267,0.73377 -0.35277,0.32456 -0.78316,0.54328 -0.42334,0.21167 -0.78317,0.21167 -0.14111,0 -0.26811,-0.0353 -0.0282,0.11995 -0.0988,0.43039 -0.0706,0.31045 -0.11994,0.51506 -0.0494,0.20461 -0.11289,0.43744 -0.127,0.47978 -0.22578,0.47978 -0.0988,0 -0.20461,-0.15522 -0.11289,-0.14817 -0.11289,-0.26811 0,-0.11995 0.22578,-1.03012 0.67733,-2.74461 0.67733,-3.69711 0,-0.21167 0.15522,-0.21167 0.127,0 0.30339,0.1905 0.18345,0.18345 0.18345,0.40923 0,0.11289 -0.0282,0.24694 0.62795,-0.81844 1.27706,-0.81844 z m -1.72156,2.95628 q 0.37395,0 0.80434,-0.254 0.43744,-0.254 0.74083,-0.67028 0.31045,-0.42334 0.31045,-0.83961 0,-0.58562 -0.27517,-0.58562 -0.27517,0 -0.74789,0.47273 -0.46567,0.47272 -0.74083,1.22766 l -0.16228,0.64912 z"
         style="fill:#000000"
         id="path16464" />
      <path
         d="m 143.82503,135.58989 q 0,-0.23989 -0.0776,-0.45156 -0.0776,-0.21872 -0.22578,-0.3175 -0.48683,0.13406 -0.83961,0.75495 -0.34572,0.61383 -0.34572,1.15711 0,0.54328 0.26811,0.67733 0.508,-0.0988 0.86078,-0.69144 0.35983,-0.59972 0.35983,-1.12889 z m -1.85561,0.0635 q 0.24694,-0.55034 0.64205,-0.90311 0.40217,-0.35984 0.81845,-0.35984 0.42333,0 0.70556,0.35984 0.28222,0.35277 0.28222,0.86783 0,0.508 -0.24695,1.04422 -0.24694,0.52917 -0.68439,0.88195 -0.43038,0.34572 -0.91722,0.34572 -0.35983,0 -0.59972,-0.33161 -0.23989,-0.33161 -0.23989,-0.83961 0,-0.51506 0.23989,-1.06539 z"
         style="fill:#000000"
         id="path16466" />
      <path
         d="m 146.9083,134.39044 q 0.23989,0 0.45156,0.26811 0.21167,0.26106 0.21167,0.45862 0,0.11994 -0.11289,0.11994 -0.0776,0 -0.23989,-0.11994 -0.16228,-0.127 -0.33161,-0.127 -0.16934,0 -0.53622,0.19755 -0.35984,0.19756 -0.35984,0.41628 0,0.16228 0.64911,0.55739 0.24695,0.15522 0.4445,0.40217 0.20461,0.23988 0.20461,0.52211 0,0.27516 -0.38805,0.54328 -0.381,0.26105 -0.89606,0.26105 -0.508,0 -0.90311,-0.24694 -0.38805,-0.24695 -0.38805,-0.46567 0,-0.0917 0.0423,-0.14111 0.0494,-0.0565 0.11994,-0.0565 0.0706,0 0.19756,0.0917 0.381,0.27516 0.79022,0.27516 0.41628,0 0.59972,-0.0917 0.18345,-0.0988 0.18345,-0.254 0,-0.16228 -0.20461,-0.33867 -0.20461,-0.18344 -0.45156,-0.32455 -0.23989,-0.14111 -0.4445,-0.34572 -0.20461,-0.20462 -0.20461,-0.41628 0,-0.37395 0.58561,-0.77611 0.59267,-0.40923 0.98072,-0.40923 z"
         style="fill:#000000"
         id="path16468" />
      <path
         d="m 148.6863,137.18444 q 0,0.13406 0.15522,0.13406 0.26811,0 0.64911,-0.14817 0.38806,-0.15522 0.43039,-0.15522 0.127,0 0.127,0.13406 0,0.20461 -0.42333,0.47272 -0.41628,0.26811 -0.762,0.26811 -0.33867,0 -0.56445,-0.18344 -0.22578,-0.1905 -0.22578,-0.38806 0,-0.19756 0.0847,-0.50094 0.0847,-0.31045 0.23989,-0.81139 0.16228,-0.508 0.254,-0.83962 -0.33161,0.0776 -0.4445,0.0776 -0.11289,0 -0.22578,-0.11289 -0.10583,-0.11995 -0.10583,-0.22578 0,-0.16933 0.91722,-0.32456 0.127,-0.58561 0.127,-1.03716 0,-0.21167 0.14111,-0.21167 0.11995,0 0.29633,0.15522 0.17639,0.14817 0.17639,0.33867 0,0.1905 -0.11994,0.67028 0.40217,-0.0353 0.64205,-0.0353 0.42334,0 0.42334,0.18344 0,0.10584 -0.23284,0.17639 -0.22577,0.0706 -0.95955,0.21872 -0.14817,0.55739 -0.37395,1.27706 -0.22577,0.71261 -0.22577,0.86783 z"
         style="fill:#000000"
         id="path16470" />
    </g>
    <path
       sodipodi:type="star"
       style="color:#000000;overflow:visible;fill:none;fill-opacity:1;stroke:#000000;stroke-width:5;stroke-linecap:round;stroke-linejoin:round"
       id="path1166"
       inkscape:flatsided="true"
       sodipodi:sides="5"
       sodipodi:cx="304.37738"
       sodipodi:cy="428.58914"
       sodipodi:r1="140.06512"
       sodipodi:r2="121.29995"
       sodipodi:arg1="2.0943951"
       sodipodi:arg2="2.7227136"
       inkscape:rounded="0.13"
       inkscape:randomized="0"
       transform="matrix(0.14402962,0.02888515,-0.01679913,0.24765082,3.8330178,41.191248)"
       inkscape:transform-center-x="-0.49098319"
       inkscape:transform-center-y="-0.28292728"
       d="M 234.34482,549.8891 C 215.80725,539.18643 162.9226,420.40554 167.37301,399.46797 c 4.45042,-20.93758 101.0755,-107.93919 122.36358,-110.17666 21.28807,-2.23747 133.89031,62.77347 142.59665,82.32821 8.70633,19.55475 -18.32673,146.73533 -34.234,161.05829 -15.90726,14.32297 -145.21686,27.91396 -163.75442,17.21129 z" />
    <g
       aria-label="Grumpy Goat"
       transform="rotate(46.052881)"
       id="text22014"
       style="font-size:7.05556px;line-height:125%;font-family:'Liberation Serif';-inkscape-font-specification:'Liberation Serif';letter-spacing:0px;word-spacing:0px;fill:none;stroke:#000000;stroke-width:0.264583px">
      <path
         d="m 123.64666,78.200114 q -0.4445,0 -0.98777,0.486833 -0.53623,0.486834 -0.91723,1.220612 -0.381,0.726723 -0.381,1.354668 0,0.254 0.16228,0.437445 0.16228,0.176389 0.381,0.176389 0.33867,0 0.79022,-0.36689 0.45861,-0.373944 0.84667,-0.959556 -0.39511,0.105834 -0.58561,0.105834 -0.1905,0 -0.32456,-0.09878 -0.13405,-0.105834 -0.13405,-0.197556 0,-0.112889 0.30339,-0.176389 0.30339,-0.07056 0.762,-0.07056 0.254,0 0.40922,0.218723 0.16228,0.211667 0.16228,0.500945 0,0.282222 -0.35278,1.340556 -0.35278,1.058334 -0.53622,1.058334 -0.17639,0 -0.17639,-0.204611 0,-0.197556 0.0988,-0.536223 0.10583,-0.338667 0.21872,-0.691445 0.11289,-0.359833 0.18344,-0.585611 -0.34572,0.585611 -0.78316,0.931334 -0.43745,0.338667 -0.85373,0.338667 -0.40922,0 -0.81139,-0.381001 -0.40216,-0.388055 -0.40216,-0.846667 0,-0.712611 0.45155,-1.587501 0.45156,-0.874889 1.13595,-1.495779 0.68439,-0.627944 1.28411,-0.627944 0.19756,0 0.38806,0.239889 0.1905,0.232833 0.1905,0.381 0,0.141111 -0.0776,0.141111 -0.0212,0 -0.15522,-0.04939 -0.13405,-0.05644 -0.28928,-0.05644 z"
         style="font-family:Kalam;-inkscape-font-specification:Kalam;fill:#000000"
         id="path16437" />
      <path
         d="m 125.34704,79.85817 -0.0212,-0.529167 q 0,-0.331611 0.15523,-0.331611 0.13405,0 0.254,0.176389 0.127,0.169333 0.127,0.409222 0,0.232834 -0.0141,0.352778 0.61383,-0.931333 1.16416,-0.931333 0.34573,0 0.34573,0.169333 0,0.08467 -0.0776,0.155222 -0.0776,0.07056 -0.24694,0.162278 -0.37395,0.162278 -0.635,0.500945 -0.254,0.331611 -0.41628,0.754945 -0.16228,0.423334 -0.26105,0.712611 -0.0917,0.289278 -0.14112,0.451556 -0.0494,0.162278 -0.11288,0.317501 -0.11289,0.282222 -0.26106,0.282222 -0.11995,0 -0.19756,-0.134056 -0.0705,-0.141111 -0.0705,-0.268111 0,-0.134056 0.11994,-0.522111 0.28928,-0.889001 0.28928,-1.728613 z"
         style="font-family:Kalam;-inkscape-font-specification:Kalam;fill:#000000"
         id="path16439" />
      <path
         d="m 129.75676,79.194948 q 0.0282,-0.112889 0.0564,-0.155223 0.0282,-0.04233 0.11994,-0.04233 0.0988,0 0.23283,0.183445 0.14112,0.183444 0.14112,0.352778 0,0.09172 -0.31045,1.086556 -0.31044,0.994834 -0.47978,1.580445 -0.0847,0.296334 -0.23989,0.296334 -0.0917,0 -0.15522,-0.07761 -0.0635,-0.07761 -0.0635,-0.282223 0,-0.204611 0.16228,-0.740834 -0.29633,0.479779 -0.64206,0.790223 -0.34572,0.310445 -0.635,0.310445 -0.28222,0 -0.53622,-0.268111 -0.254,-0.268112 -0.254,-0.550334 0,-0.670278 0.38806,-1.672168 0.39511,-1.008945 0.65616,-1.008945 0.127,0 0.21873,0.119945 0.0988,0.112888 0.0988,0.261055 0,0.0635 -0.1905,0.458612 -0.1905,0.388055 -0.381,0.917222 -0.1905,0.522112 -0.1905,0.917223 0,0.112889 0.0706,0.1905 0.0706,0.07056 0.16933,0.07056 0.26811,0 0.635,-0.472723 0.37395,-0.472722 0.67734,-1.100667 0.30338,-0.627945 0.45155,-1.164167 z"
         style="font-family:Kalam;-inkscape-font-specification:Kalam;fill:#000000"
         id="path16441" />
      <path
         d="m 135.21776,78.997392 q 0.21166,0 0.37394,0.296334 0.16934,0.289277 0.16934,0.663222 0,0.366889 -0.13406,0.959556 -0.127,0.592667 -0.34572,1.086557 -0.21872,0.493889 -0.43039,0.493889 -0.14817,0 -0.14817,-0.1905 0,-0.197556 0.23989,-0.952501 0.24695,-0.762 0.24695,-1.206501 0,-0.451556 -0.14112,-0.451556 -0.17638,0 -0.40922,0.310445 -0.22578,0.310445 -0.48683,0.747889 -0.26106,0.437445 -0.28222,0.472723 -0.0212,0.02822 -0.0564,0.08467 -0.0282,0.05644 -0.0705,0.119944 -0.0353,0.0635 -0.19756,0.381 -0.15522,0.317501 -0.27517,0.500945 -0.11994,0.176389 -0.21166,0.176389 -0.0847,0 -0.1905,-0.112889 -0.10584,-0.112889 -0.10584,-0.211667 0,-0.09878 0.127,-0.409222 0.36689,-0.917223 0.36689,-1.707446 0,-0.148166 -0.0635,-0.246944 -0.0635,-0.105834 -0.14111,-0.105834 -0.0776,0 -0.16228,0.07056 -0.0847,0.0635 -0.21166,0.239889 -0.127,0.169334 -0.22578,0.324556 -0.0988,0.155222 -0.30339,0.486833 -0.19756,0.324556 -0.30339,0.486834 -0.0988,0.155222 -0.23283,0.366889 -0.13406,0.204612 -0.21167,0.3175 -0.0706,0.112889 -0.16228,0.246945 -0.1905,0.261056 -0.28222,0.261056 -0.0847,0 -0.22578,-0.155223 -0.14111,-0.162277 -0.14111,-0.239889 0,-0.08467 0.0282,-0.204611 0.0282,-0.119944 0.0565,-0.232833 0.0353,-0.112889 0.0988,-0.331612 0.0706,-0.225778 0.15523,-0.522111 0.0917,-0.303389 0.13405,-0.825501 0.0494,-0.529167 0.0706,-0.769056 0.0212,-0.246944 0.11994,-0.246944 0.15523,0 0.30339,0.162278 0.15522,0.162278 0.15522,0.324555 0,0.62089 -0.46566,2.046113 0.79022,-1.481668 0.99483,-1.756835 0.20461,-0.275166 0.35278,-0.4445 0.27517,-0.303389 0.55739,-0.303389 0.16933,0 0.40217,0.296334 0.23988,0.289277 0.23988,0.585611 0,0.296334 -0.0847,0.733778 0.83255,-1.615723 1.50989,-1.615723 z"
         style="font-family:Kalam;-inkscape-font-specification:Kalam;fill:#000000"
         id="path16443" />
      <path
         d="m 138.5762,78.976225 q 0.30339,0 0.52211,0.388056 0.22578,0.388056 0.22578,0.804334 0,0.409222 -0.23989,0.8255 -0.23989,0.409223 -0.59267,0.733779 -0.35277,0.324556 -0.78316,0.543278 -0.42334,0.211667 -0.78317,0.211667 -0.14111,0 -0.26811,-0.03528 -0.0282,0.119944 -0.0988,0.430389 -0.0706,0.310445 -0.11994,0.515056 -0.0494,0.204611 -0.11289,0.437445 -0.127,0.479778 -0.22578,0.479778 -0.0988,0 -0.20461,-0.155223 -0.11289,-0.148166 -0.11289,-0.268111 0,-0.119944 0.22578,-1.030112 0.67733,-2.744613 0.67733,-3.697113 0,-0.211667 0.15522,-0.211667 0.127,0 0.30339,0.1905 0.18345,0.183445 0.18345,0.409223 0,0.112889 -0.0282,0.246944 0.62795,-0.818445 1.27706,-0.818445 z m -1.72156,2.95628 q 0.37395,0 0.80434,-0.254 0.43744,-0.254 0.74083,-0.670278 0.31045,-0.423334 0.31045,-0.839612 0,-0.585612 -0.27517,-0.585612 -0.27517,0 -0.74789,0.472723 -0.46567,0.472723 -0.74083,1.227667 l -0.16228,0.649112 z"
         style="font-family:Kalam;-inkscape-font-specification:Kalam;fill:#000000"
         id="path16445" />
      <path
         d="m 142.40031,78.997392 q 0.11288,0 0.23988,0.169333 0.13406,0.162278 0.13406,0.36689 0,0.141111 -0.28928,0.959556 -0.28928,0.818445 -0.39511,1.114778 -0.0988,0.289278 -0.27517,0.776112 -0.16933,0.479778 -0.33161,0.938389 -0.35278,1.008945 -1.05833,1.008945 -0.40217,0 -0.76906,-0.246944 -0.36689,-0.239889 -0.36689,-0.500945 0,-0.09878 0.0917,-0.218722 0.0847,-0.119945 0.14816,-0.119945 0.0635,0 0.20461,0.155222 0.40923,0.465667 0.6985,0.465667 0.21873,0 0.39512,-0.388055 0.17638,-0.381001 0.33161,-0.867834 0.16227,-0.479778 0.17639,-0.529167 0.0212,-0.04939 0.0423,-0.127 0.0282,-0.07761 0.0494,-0.141112 -0.50095,0.68439 -0.98778,0.68439 -0.29633,0 -0.55033,-0.275167 -0.24695,-0.275167 -0.24695,-0.649112 0,-0.373944 0.18345,-1.008945 0.18344,-0.635 0.43039,-1.100667 0.24694,-0.465667 0.40216,-0.465667 0.127,0 0.23284,0.119945 0.11288,0.112888 0.11288,0.232833 0,0.119945 -0.18344,0.500945 -0.5715,1.171223 -0.5715,1.820334 0,0.112889 0.0706,0.1905 0.0705,0.07056 0.16933,0.07056 0.254,0 0.60678,-0.451556 0.35277,-0.451556 0.64911,-1.072445 0.24694,-0.522111 0.51505,-1.333501 0.0282,-0.07761 0.14112,-0.07761 z"
         style="font-family:Kalam;-inkscape-font-specification:Kalam;fill:#000000"
         id="path16447" />
      <path
         d="m 148.8138,78.200114 q -0.4445,0 -0.98778,0.486833 -0.53622,0.486834 -0.91722,1.220612 -0.381,0.726723 -0.381,1.354668 0,0.254 0.16228,0.437445 0.16228,0.176389 0.381,0.176389 0.33867,0 0.79022,-0.36689 0.45861,-0.373944 0.84667,-0.959556 -0.39511,0.105834 -0.58561,0.105834 -0.1905,0 -0.32456,-0.09878 -0.13405,-0.105834 -0.13405,-0.197556 0,-0.112889 0.30339,-0.176389 0.30338,-0.07056 0.762,-0.07056 0.254,0 0.40922,0.218723 0.16228,0.211667 0.16228,0.500945 0,0.282222 -0.35278,1.340556 -0.35278,1.058334 -0.53622,1.058334 -0.17639,0 -0.17639,-0.204611 0,-0.197556 0.0988,-0.536223 0.10584,-0.338667 0.21873,-0.691445 0.11289,-0.359833 0.18344,-0.585611 -0.34572,0.585611 -0.78317,0.931334 -0.43744,0.338667 -0.85372,0.338667 -0.40922,0 -0.81139,-0.381001 -0.40216,-0.388055 -0.40216,-0.846667 0,-0.712611 0.45155,-1.587501 0.45156,-0.874889 1.13595,-1.495779 0.68439,-0.627944 1.28411,-0.627944 0.19755,0 0.38805,0.239889 0.1905,0.232833 0.1905,0.381 0,0.141111 -0.0776,0.141111 -0.0212,0 -0.15522,-0.04939 -0.13405,-0.05644 -0.28928,-0.05644 z"
         style="font-family:Kalam;-inkscape-font-specification:Kalam;fill:#000000"
         id="path16449" />
      <path
         d="m 152.22163,80.196837 q 0,-0.239889 -0.0776,-0.451556 -0.0776,-0.218722 -0.22577,-0.3175 -0.48684,0.134056 -0.83962,0.754945 -0.34572,0.613834 -0.34572,1.157112 0,0.543278 0.26811,0.677334 0.508,-0.09878 0.86078,-0.691445 0.35984,-0.599723 0.35984,-1.12889 z m -1.85562,0.0635 q 0.24695,-0.550333 0.64206,-0.903111 0.40217,-0.359834 0.81844,-0.359834 0.42334,0 0.70556,0.359834 0.28222,0.352778 0.28222,0.867833 0,0.508001 -0.24694,1.044223 -0.24695,0.529167 -0.68439,0.881945 -0.43039,0.345723 -0.91722,0.345723 -0.35984,0 -0.59973,-0.331612 -0.23989,-0.331611 -0.23989,-0.839611 0,-0.515056 0.23989,-1.06539 z"
         style="font-family:Kalam;-inkscape-font-specification:Kalam;fill:#000000"
         id="path16451" />
      <path
         d="m 155.16379,78.997392 q 0.3175,0 0.58561,0.324556 0.26811,0.3175 0.26811,0.578556 0,0.254 -0.17639,0.522111 0.0847,0.105834 0.0847,0.183445 0,0.197555 -0.0917,0.677333 -0.0847,0.479779 -0.10584,0.627945 -0.0141,0.148167 -0.0282,0.239889 -0.0141,0.08467 -0.0353,0.169334 -0.0282,0.176389 -0.127,0.176389 -0.127,0 -0.21166,-0.218723 -0.0776,-0.225777 -0.0917,-0.578555 -0.62794,0.797278 -1.16416,0.797278 -0.32456,0 -0.64206,-0.275167 -0.31044,-0.282222 -0.31044,-0.578556 0,-0.423334 0.31044,-1.044223 0.31045,-0.627945 0.80433,-1.114778 0.49389,-0.486834 0.93134,-0.486834 z m 0.32455,1.241779 q 0,-0.656168 -0.26105,-0.656168 -0.27517,0 -0.64206,0.395112 -0.36689,0.388056 -0.62089,0.881945 -0.254,0.493889 -0.254,0.783167 0,0.119945 0.0988,0.197556 0.0988,0.07055 0.23283,0.07055 0.33162,0 0.74789,-0.4445 0.41628,-0.451556 0.57856,-1.093612 0.0212,-0.105833 0.11994,-0.127 z"
         style="font-family:Kalam;-inkscape-font-specification:Kalam;fill:#000000"
         id="path16453" />
      <path
         d="m 157.38629,81.791394 q 0,0.134055 0.15522,0.134055 0.26811,0 0.64911,-0.148166 0.38806,-0.155223 0.43039,-0.155223 0.127,0 0.127,0.134056 0,0.204611 -0.42333,0.472723 -0.41628,0.268111 -0.762,0.268111 -0.33867,0 -0.56445,-0.183445 -0.22578,-0.1905 -0.22578,-0.388056 0,-0.197555 0.0847,-0.500944 0.0847,-0.310445 0.23989,-0.81139 0.16228,-0.508 0.254,-0.839611 -0.33161,0.07761 -0.4445,0.07761 -0.11289,0 -0.22578,-0.112889 -0.10583,-0.119945 -0.10583,-0.225778 0,-0.169334 0.91722,-0.324556 0.127,-0.585611 0.127,-1.037167 0,-0.211667 0.14111,-0.211667 0.11995,0 0.29634,0.155222 0.17638,0.148167 0.17638,0.338667 0,0.1905 -0.11994,0.670278 0.40217,-0.03528 0.64206,-0.03528 0.42333,0 0.42333,0.183444 0,0.105834 -0.23283,0.176389 -0.22578,0.07056 -0.95956,0.218723 -0.14817,0.557389 -0.37394,1.277056 -0.22578,0.712611 -0.22578,0.867834 z"
         style="font-family:Kalam;-inkscape-font-specification:Kalam;fill:#000000"
         id="path16455" />
    </g>
    <g
       aria-label="Sky"
       id="text31276"
       style="font-size:7.05556px;line-height:125%;font-family:'Liberation Serif';-inkscape-font-specification:'Liberation Serif';letter-spacing:0px;word-spacing:0px;fill:none;stroke:#000000;stroke-width:0.264583px">
      <path
         d="m 79.245316,150.37063 q 0,0.57856 -0.522112,0.97367 -0.522111,0.38806 -1.199445,0.38806 -0.670278,0 -1.107723,-0.34573 -0.437445,-0.35277 -0.437445,-0.66322 0,-0.21166 0.127,-0.21166 0.112889,0 0.444501,0.33866 0.127,0.11995 0.338667,0.22578 0.218722,0.10583 0.458611,0.10583 0.493889,0 0.87489,-0.254 0.388055,-0.254 0.388055,-0.55033 0,-0.1905 -0.254,-0.48683 -0.254,-0.29634 -0.564445,-0.55739 -0.303389,-0.26811 -0.557389,-0.5715 -0.254,-0.30339 -0.254,-0.47978 0,-0.17639 0.07056,-0.37395 0.07056,-0.19755 0.155222,-0.28927 0.275167,-0.30339 0.853723,-0.55739 0.585611,-0.254 0.980722,-0.254 0.204612,0 0.345723,0.13405 0.141111,0.13406 0.141111,0.28222 0,0.0706 -0.148167,0.11289 -0.148166,0.0423 -0.451555,0.11289 -0.296334,0.0635 -0.529167,0.15522 -0.81139,0.31045 -0.81139,0.59973 0,0.15522 0.825501,0.86783 0.3175,0.27517 0.5715,0.64206 0.261056,0.35983 0.261056,0.65616 z"
         style="font-family:Kalam;-inkscape-font-specification:Kalam;fill:#000000"
         id="path16393" />
      <path
         d="m 83.027084,148.65613 q 0,0.0635 -0.627945,0.66323 -0.232834,0.22577 -0.430389,0.53622 -0.190501,0.30339 -0.190501,0.55739 0,0.254 0.148167,0.47272 0.155222,0.21167 0.331611,0.32456 0.183445,0.10583 0.331612,0.21166 0.155222,0.10584 0.155222,0.17639 0,0.17639 -0.282222,0.17639 -0.275167,0 -0.663223,-0.31044 -0.381,-0.3175 -0.472722,-0.70556 -0.03528,-0.0706 -0.05644,-0.13406 -0.479778,0.64912 -0.6985,0.90312 -0.211667,0.24694 -0.317501,0.24694 -0.105833,0 -0.232833,-0.16228 -0.127,-0.16933 -0.127,-0.27516 0,-0.11289 0.225778,-0.91017 0.232833,-0.80434 0.458611,-1.92617 0.232834,-1.12183 0.232834,-2.00378 0,-0.11289 0.02822,-0.15522 0.03528,-0.0423 0.141111,-0.0423 0.105834,0 0.261056,0.21166 0.155222,0.20461 0.155222,0.40217 0,0.62794 -0.254,1.75683 -0.254,1.12889 -0.606778,2.14489 0.797278,-1.13594 1.375834,-1.83444 0.585612,-0.70556 0.719667,-0.70556 0.141111,0 0.268111,0.13406 0.127001,0.13405 0.127001,0.24694 z"
         style="font-family:Kalam;-inkscape-font-specification:Kalam;fill:#000000"
         id="path16395" />
      <path
         d="m 85.976307,148.27513 q 0.112889,0 0.239889,0.16934 0.134055,0.16227 0.134055,0.36689 0,0.14111 -0.289278,0.95955 -0.289278,0.81845 -0.395111,1.11478 -0.09878,0.28928 -0.275167,0.77611 -0.169333,0.47978 -0.331611,0.93839 -0.352778,1.00895 -1.058334,1.00895 -0.402167,0 -0.769056,-0.24695 -0.366889,-0.23989 -0.366889,-0.50094 0,-0.0988 0.09172,-0.21873 0.08467,-0.11994 0.148167,-0.11994 0.0635,0 0.204611,0.15522 0.409222,0.46567 0.6985,0.46567 0.218723,0 0.395112,-0.38806 0.176389,-0.381 0.331611,-0.86783 0.162278,-0.47978 0.176389,-0.52917 0.02117,-0.0494 0.04233,-0.127 0.02822,-0.0776 0.04939,-0.14111 -0.500944,0.68439 -0.987778,0.68439 -0.296334,0 -0.550334,-0.27517 -0.246944,-0.27516 -0.246944,-0.64911 0,-0.37394 0.183444,-1.00894 0.183445,-0.635 0.430389,-1.10067 0.246945,-0.46567 0.402167,-0.46567 0.127,0 0.232834,0.11995 0.112889,0.11289 0.112889,0.23283 0,0.11994 -0.183445,0.50095 -0.5715,1.17122 -0.5715,1.82033 0,0.11289 0.07055,0.1905 0.07056,0.0706 0.169334,0.0706 0.254,0 0.606778,-0.45156 0.352778,-0.45156 0.649112,-1.07245 0.246944,-0.52211 0.515056,-1.3335 0.02822,-0.0776 0.141111,-0.0776 z"
         style="font-family:Kalam;-inkscape-font-specification:Kalam;fill:#000000"
         id="path16397" />
    </g>
    <g
       aria-label="&quot;A very long way down&quot;"
       id="text36310"
       style="font-size:4.23333px;line-height:125%;font-family:'Liberation Serif';-inkscape-font-specification:'Liberation Serif';letter-spacing:0px;word-spacing:0px;fill:none;stroke:#000000;stroke-width:0.264583px">
      <path
         d="m 69.316798,154.55492 q 0.0381,0 0.09313,0.055 0.05927,0.0508 0.05927,0.0889 0,0.20744 -0.05503,0.5842 -0.05503,0.37254 -0.1143,0.37254 -0.0381,0 -0.0762,-0.0466 -0.03387,-0.0466 -0.03387,-0.0762 0,-0.0296 0.0381,-0.33867 0.0381,-0.31326 0.0381,-0.55456 0,-0.0847 0.0508,-0.0847 z m -0.626533,0 q 0.0381,0 0.09737,0.055 0.05927,0.0508 0.05927,0.0889 0,0.19897 -0.05927,0.57997 -0.05503,0.37677 -0.110066,0.37677 -0.04233,0 -0.08043,-0.0466 -0.03387,-0.0466 -0.03387,-0.0762 0,-0.0296 0.0381,-0.33867 0.0381,-0.31326 0.0381,-0.55456 0,-0.0847 0.0508,-0.0847 z"
         style="font-weight:300;font-family:Kalam;-inkscape-font-specification:'Kalam Light';fill:#000000"
         id="path16400" />
      <path
         d="m 71.048224,154.99519 q 0.118533,0 0.2159,0.4191 0.101599,0.4191 0.169333,1.02446 0.194733,-0.0381 0.296333,-0.0381 0.105833,0 0.105833,0.0889 0,0.055 -0.381,0.1651 0.05503,0.53764 0.05503,0.93133 0,0.3937 -0.1016,0.3937 -0.122767,0 -0.1397,-0.33443 -0.0254,-0.4953 -0.0635,-0.92286 -0.698499,0.18626 -0.918633,0.24553 -0.359833,0.88476 -0.402166,0.94826 -0.04233,0.0635 -0.05503,0.0635 -0.0508,0 -0.09313,-0.0593 -0.04233,-0.0635 -0.04233,-0.14394 0,-0.0296 0.300567,-0.72813 -0.09737,0.0212 -0.127,0.0212 -0.169333,0 -0.169333,-0.10583 0,-0.0677 0.414866,-0.19474 0.491066,-1.17686 0.609599,-1.41816 0.118534,-0.2413 0.169334,-0.29634 0.05503,-0.0593 0.156633,-0.0593 z m -0.643466,1.68486 q 0.474133,-0.127 0.778932,-0.1905 -0.0762,-0.69426 -0.1905,-1.1684 -0.309033,0.67734 -0.588432,1.3589 z"
         style="font-weight:300;font-family:Kalam;-inkscape-font-specification:'Kalam Light';fill:#000000"
         id="path16402" />
      <path
         d="m 75.345048,155.92652 q 0.04657,0 0.09737,0.0423 0.05503,0.0381 0.05503,0.0889 0,0.0974 -0.186267,0.508 -0.186266,0.4064 -0.364066,0.8001 -0.173567,0.38947 -0.2413,0.51223 -0.06773,0.11854 -0.1397,0.11854 -0.207433,0 -0.448733,-1.08797 -0.127,-0.55456 -0.127,-0.8763 0,-0.10583 0.05503,-0.10583 0.05927,0 0.131233,0.0593 0.0762,0.0593 0.08467,0.1397 0.05503,1.03293 0.321734,1.56633 0.0889,-0.2159 0.300566,-0.7493 0.211666,-0.53763 0.3175,-0.7747 0.105833,-0.2413 0.143933,-0.2413 z"
         style="font-weight:300;font-family:Kalam;-inkscape-font-specification:'Kalam Light';fill:#000000"
         id="path16404" />
      <path
         d="m 77.262742,156.59539 q 0,0.22013 -0.224366,0.35136 -0.224367,0.127 -0.516467,0.127 -0.292099,0 -0.613833,-0.0804 -0.06773,0.2159 -0.06773,0.38523 0,0.16933 0.118533,0.2667 0.118534,0.0931 0.313267,0.0931 0.194733,0 0.414866,-0.0804 0.220133,-0.0804 0.249767,-0.0804 0.0762,0 0.0762,0.0677 0,0.0847 -0.249767,0.21167 -0.249766,0.12276 -0.4572,0.12276 -0.292099,0 -0.499532,-0.18203 -0.2032,-0.18627 -0.2032,-0.47837 0,-0.29633 0.1524,-0.62229 0.152399,-0.32597 0.397933,-0.5461 0.245533,-0.22437 0.482599,-0.22437 0.2413,0 0.4318,0.22437 0.194733,0.22013 0.194733,0.4445 z m -0.592666,-0.4318 q -0.1905,0 -0.381,0.18626 -0.186266,0.18627 -0.309033,0.46567 0.245533,0.0593 0.486833,0.0593 0.245533,0 0.397933,-0.0804 0.156633,-0.0847 0.156633,-0.2159 0,-0.13546 -0.1143,-0.27516 -0.1143,-0.1397 -0.237066,-0.1397 z"
         style="font-weight:300;font-family:Kalam;-inkscape-font-specification:'Kalam Light';fill:#000000"
         id="path16406" />
      <path
         d="m 77.766503,156.33715 -0.0085,-0.2286 q 0,-0.14393 0.02117,-0.16086 0.02117,-0.0212 0.04233,-0.0212 0.05927,0 0.118533,0.0889 0.05927,0.0889 0.05927,0.1905 0,0.27093 -0.04657,0.54187 0.127,-0.2667 0.270933,-0.4572 0.143933,-0.19474 0.2667,-0.27094 0.122766,-0.0762 0.220133,-0.0762 0.186266,0 0.186266,0.0762 0,0.055 -0.131233,0.11007 -0.249766,0.0974 -0.402166,0.3048 -0.1524,0.2032 -0.300567,0.52917 -0.148166,0.32173 -0.228599,0.57573 -0.0762,0.254 -0.1143,0.3556 -0.0381,0.1016 -0.09737,0.1016 -0.04657,0 -0.08043,-0.0593 -0.03387,-0.0593 -0.03387,-0.1143 0,-0.0593 0.0254,-0.1524 0.118533,-0.38947 0.173567,-0.66463 0.05927,-0.2794 0.05927,-0.66887 z"
         style="font-weight:300;font-family:Kalam;-inkscape-font-specification:'Kalam Light';fill:#000000"
         id="path16408" />
      <path
         d="m 80.441965,155.92652 q 0.05503,0 0.110066,0.0762 0.05503,0.072 0.05503,0.13547 0,0.0593 -0.0381,0.18203 -0.0381,0.11853 -0.131233,0.381 -0.0889,0.25823 -0.1651,0.4699 -0.0762,0.21166 -0.232833,0.63923 -0.1524,0.42333 -0.245534,0.69427 -0.198966,0.5588 -0.554566,0.5588 -0.2159,0 -0.427566,-0.1397 -0.211667,-0.13547 -0.211667,-0.2921 0,-0.0381 0.03387,-0.0847 0.03387,-0.0466 0.05927,-0.0466 0.0254,0 0.1016,0.0889 0.224366,0.27094 0.436033,0.27094 0.08043,0 0.152399,-0.072 0.0762,-0.072 0.156634,-0.25823 0.118533,-0.26247 0.355599,-0.97367 -0.287866,0.42333 -0.622299,0.42333 -0.194733,0 -0.325967,-0.14816 -0.131233,-0.1524 -0.131233,-0.37677 0,-0.22436 0.1143,-0.60536 0.118533,-0.381 0.262467,-0.65194 0.143933,-0.27093 0.228599,-0.27093 0.04233,0 0.08043,0.0508 0.04233,0.0466 0.04233,0.1016 0,0.0508 -0.118533,0.28363 -0.1143,0.23284 -0.232833,0.56304 -0.118534,0.32596 -0.118534,0.59689 0,0.0974 0.05927,0.1651 0.0635,0.0635 0.1524,0.0635 0.156633,0 0.325966,-0.17356 0.173567,-0.17357 0.3175,-0.44873 0.258233,-0.508 0.436033,-1.07527 0.02117,-0.1143 0.0381,-0.11853 0.02117,-0.008 0.0381,-0.008 z"
         style="font-weight:300;font-family:Kalam;-inkscape-font-specification:'Kalam Light';fill:#000000"
         id="path16410" />
      <path
         d="m 83.172459,155.00365 q 0,0.90594 -0.423333,2.47227 -0.135467,0.50376 -0.194733,0.50376 -0.04233,0 -0.0889,-0.0593 -0.04657,-0.0635 -0.04657,-0.11007 0,-0.0466 0.127,-0.5461 0.127,-0.50376 0.254,-1.19803 0.127,-0.6985 0.127,-1.2192 0,-0.0635 0.0085,-0.0847 0.0085,-0.0212 0.04657,-0.0212 0.04233,0 0.1143,0.0889 0.0762,0.0847 0.0762,0.17356 z"
         style="font-weight:300;font-family:Kalam;-inkscape-font-specification:'Kalam Light';fill:#000000"
         id="path16412" />
      <path
         d="m 84.370491,157.54365 q 0.194733,-0.2032 0.2921,-0.4572 0.101599,-0.254 0.101599,-0.44873 0,-0.19473 -0.06773,-0.3302 -0.0635,-0.1397 -0.173566,-0.1905 -0.351367,0.0677 -0.575733,0.45297 -0.224367,0.38523 -0.224367,0.80433 0,0.3175 0.2159,0.3937 0.237067,-0.0254 0.4318,-0.22437 z m -0.762,-0.86783 q 0.1397,-0.32173 0.381,-0.5334 0.245533,-0.2159 0.491066,-0.2159 0.249767,0 0.389467,0.21167 0.143933,0.20743 0.143933,0.48683 0,0.49953 -0.325966,0.9271 -0.325967,0.42756 -0.753533,0.42756 -0.211667,0 -0.338667,-0.1905 -0.126999,-0.1905 -0.126999,-0.49106 0,-0.3048 0.139699,-0.6223 z"
         style="font-weight:300;font-family:Kalam;-inkscape-font-specification:'Kalam Light';fill:#000000"
         id="path16414" />
      <path
         d="m 86.825821,155.92652 q 0.110066,0 0.241299,0.1651 0.135467,0.16087 0.135467,0.33867 0,0.2667 -0.1397,0.69003 -0.135466,0.4191 -0.2413,0.63923 -0.1016,0.22013 -0.1905,0.22013 -0.06773,0 -0.06773,-0.072 0,-0.072 0.03387,-0.18204 0.0381,-0.1143 0.110066,-0.30903 0.249767,-0.66463 0.249767,-0.96943 0,-0.0974 -0.05927,-0.1651 -0.05503,-0.072 -0.09737,-0.072 -0.0381,0 -0.07197,0.0169 -0.03387,0.0127 -0.0762,0.0466 -0.0381,0.0339 -0.0762,0.072 -0.03387,0.0339 -0.0889,0.1016 -0.0508,0.0677 -0.0889,0.12277 -0.0381,0.0508 -0.105833,0.14816 -0.0635,0.0931 -0.105833,0.15664 -0.169333,0.2667 -0.254,0.39369 -0.08467,0.12277 -0.207433,0.32174 -0.2413,0.38946 -0.270933,0.38946 -0.04657,0 -0.1016,-0.0593 -0.0508,-0.0635 -0.0508,-0.10584 0,-0.0423 0.03387,-0.1524 0.139699,-0.44873 0.177799,-0.62229 0.127,-0.54187 0.127,-0.91864 0,-0.19896 0.0762,-0.19896 0.05927,0 0.118533,0.0804 0.05927,0.0762 0.05927,0.20743 0,0.13124 -0.09313,0.5334 -0.0889,0.40217 -0.198967,0.70273 0.491067,-0.84243 0.762,-1.18109 0.270933,-0.33867 0.461433,-0.33867 z"
         style="font-weight:300;font-family:Kalam;-inkscape-font-specification:'Kalam Light';fill:#000000"
         id="path16416" />
      <path
         d="m 89.183785,156.82822 q 0,0.18203 -0.182033,0.43603 -0.143933,0.32173 -0.3429,1.02447 -0.05503,0.2032 -0.131233,0.3937 -0.1524,0.38523 -0.4699,0.38523 -0.313266,0 -0.512233,-0.1524 -0.194733,-0.14817 -0.194733,-0.31327 0,-0.0381 0.0254,-0.0847 0.0254,-0.0466 0.05927,-0.0466 0.03387,0 0.08467,0.0593 0.05503,0.0635 0.1016,0.13546 0.0508,0.072 0.160867,0.13124 0.110066,0.0635 0.220133,0.0635 0.110067,0 0.169333,-0.0466 0.0635,-0.0466 0.105833,-0.11853 0.04233,-0.0677 0.08467,-0.19474 0.04657,-0.12276 0.0762,-0.23283 0.105833,-0.3937 0.1651,-0.5842 -0.359833,0.29633 -0.6096,0.29633 -0.194733,0 -0.342899,-0.14816 -0.143934,-0.1524 -0.143934,-0.33867 0,-0.27516 0.1778,-0.64346 0.1778,-0.3683 0.4572,-0.64347 0.2794,-0.2794 0.516466,-0.2794 0.2413,0 0.359833,0.2286 0.122767,0.2286 0.122767,0.4826 v 0.0423 q 0.04233,0.055 0.04233,0.14817 z m -1.202266,0.9017 q 0.258233,0 0.5461,-0.2667 0.2921,-0.2667 0.448733,-0.68157 -0.02963,-0.0508 -0.0508,-0.16086 -0.0508,-0.33867 -0.1397,-0.41064 -0.0381,-0.0339 -0.09737,-0.0339 -0.182033,0 -0.406399,0.24553 -0.224367,0.24553 -0.376767,0.56303 -0.1524,0.31327 -0.1524,0.52493 0,0.0974 0.06773,0.16087 0.06773,0.0593 0.160866,0.0593 z"
         style="font-weight:300;font-family:Kalam;-inkscape-font-specification:'Kalam Light';fill:#000000"
         id="path16418" />
      <path
         d="m 92.841375,156.32445 -0.02117,0.81704 q 0,0.41486 0.04233,0.61806 0.2159,-0.23707 0.372533,-0.5207 0.156633,-0.28363 0.2286,-0.51223 0.0762,-0.23283 0.127,-0.42757 0.0508,-0.19896 0.0889,-0.30903 0.04233,-0.1143 0.09737,-0.1143 0.1016,0 0.1016,0.2286 0,0.22437 -0.2032,0.70697 -0.203199,0.47836 -0.444499,0.83396 -0.2413,0.35137 -0.397933,0.35137 -0.05927,0 -0.0889,-0.0212 -0.02963,-0.0254 -0.06773,-0.11007 -0.07197,-0.16933 -0.07197,-0.71966 0,-0.55033 0.0254,-0.93133 -0.359833,0.93556 -0.575733,1.35889 -0.2159,0.42334 -0.338666,0.42334 -0.05503,0 -0.09313,-0.0381 -0.152399,-0.1524 -0.220133,-0.8763 -0.0635,-0.72813 -0.0635,-1.02023 0,-0.17357 0.1016,-0.17357 0.09313,0 0.135467,0.2286 0.02117,0.12277 0.03387,0.65193 0.01693,0.52917 0.118534,0.9906 0.1778,-0.32173 0.372533,-0.81703 0.194733,-0.4953 0.317499,-0.76623 0.127,-0.27517 0.224367,-0.27517 0.110066,0 0.1524,0.0974 0.04657,0.0974 0.04657,0.32596 z"
         style="font-weight:300;font-family:Kalam;-inkscape-font-specification:'Kalam Light';fill:#000000"
         id="path16420" />
      <path
         d="m 95.055407,155.92652 q 0.220133,0 0.338666,0.18203 0.122767,0.18204 0.122767,0.3302 0,0.14394 -0.09313,0.27094 0.0381,0.0423 0.0381,0.11006 0,0.27094 -0.04657,0.51223 -0.04233,0.2413 -0.05503,0.38524 -0.0127,0.14393 -0.02963,0.2032 -0.0127,0.0593 -0.0508,0.0593 -0.07197,0 -0.09313,-0.13546 -0.02117,-0.1397 -0.02117,-0.42757 -0.131233,0.23283 -0.334433,0.39793 -0.198966,0.1651 -0.393699,0.1651 -0.1905,0 -0.3683,-0.14816 -0.1778,-0.14817 -0.1778,-0.32597 0,-0.27093 0.186267,-0.64346 0.190499,-0.37677 0.474133,-0.65617 0.283633,-0.2794 0.503766,-0.2794 z m 0.2413,0.73237 q -0.0042,-0.0296 -0.0042,-0.1397 0,-0.1143 -0.0508,-0.2286 -0.04657,-0.1143 -0.143933,-0.1143 -0.160866,0 -0.389466,0.24553 -0.224367,0.2413 -0.389467,0.56303 -0.165099,0.3175 -0.165099,0.52493 0,0.0931 0.08467,0.15664 0.0889,0.0635 0.186267,0.0635 0.220133,0 0.448733,-0.28364 0.228599,-0.28363 0.347133,-0.69849 0.0127,-0.072 0.0762,-0.0889 z"
         style="font-weight:300;font-family:Kalam;-inkscape-font-specification:'Kalam Light';fill:#000000"
         id="path16422" />
      <path
         d="m 97.540365,155.92652 q 0.05503,0 0.110067,0.0762 0.05503,0.072 0.05503,0.13547 0,0.0593 -0.0381,0.18203 -0.0381,0.11853 -0.131233,0.381 -0.0889,0.25823 -0.1651,0.4699 -0.0762,0.21166 -0.232833,0.63923 -0.1524,0.42333 -0.245534,0.69427 -0.198966,0.5588 -0.554566,0.5588 -0.2159,0 -0.427566,-0.1397 -0.211666,-0.13547 -0.211666,-0.2921 0,-0.0381 0.03387,-0.0847 0.03387,-0.0466 0.05927,-0.0466 0.0254,0 0.1016,0.0889 0.224366,0.27094 0.436033,0.27094 0.08043,0 0.1524,-0.072 0.0762,-0.072 0.156633,-0.25823 0.118533,-0.26247 0.355599,-0.97367 -0.287866,0.42333 -0.622299,0.42333 -0.194733,0 -0.325966,-0.14816 -0.131234,-0.1524 -0.131234,-0.37677 0,-0.22436 0.1143,-0.60536 0.118533,-0.381 0.262467,-0.65194 0.143933,-0.27093 0.228599,-0.27093 0.04233,0 0.08043,0.0508 0.04233,0.0466 0.04233,0.1016 0,0.0508 -0.118533,0.28363 -0.1143,0.23284 -0.232833,0.56304 -0.118534,0.32596 -0.118534,0.59689 0,0.0974 0.05927,0.1651 0.0635,0.0635 0.1524,0.0635 0.156633,0 0.325966,-0.17356 0.173567,-0.17357 0.3175,-0.44873 0.258233,-0.508 0.436033,-1.07527 0.02117,-0.1143 0.0381,-0.11853 0.02117,-0.008 0.0381,-0.008 z"
         style="font-weight:300;font-family:Kalam;-inkscape-font-specification:'Kalam Light';fill:#000000"
         id="path16424" />
      <path
         d="m 101.27416,154.86819 q 0,-0.072 0.0127,-0.0974 0.0127,-0.0296 0.0635,-0.0296 0.0508,0 0.11007,0.0931 0.0635,0.0889 0.0635,0.20743 0,0.11854 -0.0974,0.64347 -0.0931,0.52493 -0.32173,1.4097 -0.22437,0.88476 -0.2921,0.88476 -0.0466,0 -0.0931,-0.0508 -0.0466,-0.055 -0.0466,-0.1143 0,-0.0635 0.0593,-0.3302 -0.18203,0.2159 -0.3937,0.3556 -0.21166,0.1397 -0.406396,0.1397 -0.194734,0 -0.334433,-0.1524 -0.135467,-0.15663 -0.135467,-0.3429 0,-0.1905 0.09313,-0.45719 0.09737,-0.2667 0.245533,-0.51224 0.1524,-0.24553 0.3683,-0.41486 0.2159,-0.17357 0.4318,-0.17357 0.32597,0 0.42333,0.4318 0.21167,-0.89747 0.24977,-1.49013 z m -0.65617,1.3081 q -0.1905,0 -0.4064,0.22436 -0.215896,0.22014 -0.355596,0.53764 -0.1397,0.31326 -0.1397,0.57996 0,0.0974 0.08043,0.1651 0.08043,0.0677 0.173567,0.0677 0.194736,0 0.495296,-0.2667 0.33867,-0.30479 0.4445,-0.67309 0,-0.27094 -0.0762,-0.45297 -0.0762,-0.18203 -0.2159,-0.18203 z"
         style="font-weight:300;font-family:Kalam;-inkscape-font-specification:'Kalam Light';fill:#000000"
         id="path16426" />
      <path
         d="m 102.50605,157.54365 q 0.19473,-0.2032 0.2921,-0.4572 0.1016,-0.254 0.1016,-0.44873 0,-0.19473 -0.0677,-0.3302 -0.0635,-0.1397 -0.17357,-0.1905 -0.35136,0.0677 -0.57573,0.45297 -0.22437,0.38523 -0.22437,0.80433 0,0.3175 0.2159,0.3937 0.23707,-0.0254 0.4318,-0.22437 z m -0.762,-0.86783 q 0.1397,-0.32173 0.381,-0.5334 0.24554,-0.2159 0.49107,-0.2159 0.24976,0 0.38946,0.21167 0.14394,0.20743 0.14394,0.48683 0,0.49953 -0.32597,0.9271 -0.32596,0.42756 -0.75353,0.42756 -0.21167,0 -0.33867,-0.1905 -0.127,-0.1905 -0.127,-0.49106 0,-0.3048 0.1397,-0.6223 z"
         style="font-weight:300;font-family:Kalam;-inkscape-font-specification:'Kalam Light';fill:#000000"
         id="path16428" />
      <path
         d="m 105.04181,156.32445 -0.0212,0.81704 q 0,0.41486 0.0423,0.61806 0.2159,-0.23707 0.37253,-0.5207 0.15664,-0.28363 0.2286,-0.51223 0.0762,-0.23283 0.127,-0.42757 0.0508,-0.19896 0.0889,-0.30903 0.0423,-0.1143 0.0974,-0.1143 0.1016,0 0.1016,0.2286 0,0.22437 -0.2032,0.70697 -0.2032,0.47836 -0.4445,0.83396 -0.2413,0.35137 -0.39793,0.35137 -0.0593,0 -0.0889,-0.0212 -0.0296,-0.0254 -0.0677,-0.11007 -0.072,-0.16933 -0.072,-0.71966 0,-0.55033 0.0254,-0.93133 -0.35983,0.93556 -0.57573,1.35889 -0.2159,0.42334 -0.33867,0.42334 -0.055,0 -0.0931,-0.0381 -0.1524,-0.1524 -0.22014,-0.8763 -0.0635,-0.72813 -0.0635,-1.02023 0,-0.17357 0.1016,-0.17357 0.0931,0 0.13547,0.2286 0.0212,0.12277 0.0339,0.65193 0.0169,0.52917 0.11853,0.9906 0.1778,-0.32173 0.37253,-0.81703 0.19474,-0.4953 0.3175,-0.76623 0.127,-0.27517 0.22437,-0.27517 0.11006,0 0.1524,0.0974 0.0466,0.0974 0.0466,0.32596 z"
         style="font-weight:300;font-family:Kalam;-inkscape-font-specification:'Kalam Light';fill:#000000"
         id="path16430" />
      <path
         d="m 107.72575,155.92652 q 0.11006,0 0.2413,0.1651 0.13546,0.16087 0.13546,0.33867 0,0.2667 -0.1397,0.69003 -0.13546,0.4191 -0.2413,0.63923 -0.1016,0.22013 -0.1905,0.22013 -0.0677,0 -0.0677,-0.072 0,-0.072 0.0339,-0.18204 0.0381,-0.1143 0.11006,-0.30903 0.24977,-0.66463 0.24977,-0.96943 0,-0.0974 -0.0593,-0.1651 -0.055,-0.072 -0.0974,-0.072 -0.0381,0 -0.072,0.0169 -0.0339,0.0127 -0.0762,0.0466 -0.0381,0.0339 -0.0762,0.072 -0.0339,0.0339 -0.0889,0.1016 -0.0508,0.0677 -0.0889,0.12277 -0.0381,0.0508 -0.10583,0.14816 -0.0635,0.0931 -0.10584,0.15664 -0.16933,0.2667 -0.25399,0.39369 -0.0847,0.12277 -0.20744,0.32174 -0.2413,0.38946 -0.27093,0.38946 -0.0466,0 -0.1016,-0.0593 -0.0508,-0.0635 -0.0508,-0.10584 0,-0.0423 0.0339,-0.1524 0.1397,-0.44873 0.1778,-0.62229 0.127,-0.54187 0.127,-0.91864 0,-0.19896 0.0762,-0.19896 0.0593,0 0.11853,0.0804 0.0593,0.0762 0.0593,0.20743 0,0.13124 -0.0931,0.5334 -0.0889,0.40217 -0.19896,0.70273 0.49106,-0.84243 0.76199,-1.18109 0.27094,-0.33867 0.46144,-0.33867 z"
         style="font-weight:300;font-family:Kalam;-inkscape-font-specification:'Kalam Light';fill:#000000"
         id="path16432" />
      <path
         d="m 109.17354,154.55492 q 0.0381,0 0.0931,0.055 0.0593,0.0508 0.0593,0.0889 0,0.20744 -0.055,0.5842 -0.055,0.37254 -0.1143,0.37254 -0.0381,0 -0.0762,-0.0466 -0.0339,-0.0466 -0.0339,-0.0762 0,-0.0296 0.0381,-0.33867 0.0381,-0.31326 0.0381,-0.55456 0,-0.0847 0.0508,-0.0847 z m -0.62653,0 q 0.0381,0 0.0974,0.055 0.0593,0.0508 0.0593,0.0889 0,0.19897 -0.0593,0.57997 -0.055,0.37677 -0.11007,0.37677 -0.0423,0 -0.0804,-0.0466 -0.0339,-0.0466 -0.0339,-0.0762 0,-0.0296 0.0381,-0.33867 0.0381,-0.31326 0.0381,-0.55456 0,-0.0847 0.0508,-0.0847 z"
         style="font-weight:300;font-family:Kalam;-inkscape-font-specification:'Kalam Light';fill:#000000"
         id="path16434" />
    </g>
    <ellipse
       style="color:#000000;overflow:visible;fill:none;stroke:#000000;stroke-width:0.5;stroke-linecap:round;stroke-linejoin:round;stroke-miterlimit:4;stroke-dasharray:none"
       id="path16564"
       cx="53.062691"
       cy="147.36548"
       rx="3.6991057"
       ry="3.9077504" />
    <g
       aria-label="Tor Byorn"
       id="text20252"
       style="font-size:3.175px;line-height:125%;font-family:'Liberation Serif';-inkscape-font-specification:'Liberation Serif';letter-spacing:0px;word-spacing:0px;fill:none;stroke:#000000;stroke-width:0.264583px">
      <path
         d="m 40.248423,139.42177 h 1.95802 v 0.26355 h -0.821655 v 2.05104 h -0.31471 v -2.05104 h -0.821655 z"
         style="font-family:sans-serif;-inkscape-font-specification:sans-serif;fill:#000000;stroke:none"
         id="path41198" />
      <path
         d="m 42.629673,140.20002 q -0.229443,0 -0.362769,0.17983 -0.133325,0.17829 -0.133325,0.48989 0,0.31161 0.131775,0.49145 0.133325,0.17828 0.364319,0.17828 0.227893,0 0.361218,-0.17983 0.133325,-0.17984 0.133325,-0.4899 0,-0.3085 -0.133325,-0.48834 -0.133325,-0.18138 -0.361218,-0.18138 z m 0,-0.24185 q 0.37207,0 0.58446,0.24185 0.212391,0.24184 0.212391,0.66972 0,0.42634 -0.212391,0.66973 -0.21239,0.24185 -0.58446,0.24185 -0.373621,0 -0.586011,-0.24185 -0.21084,-0.24339 -0.21084,-0.66973 0,-0.42788 0.21084,-0.66972 0.21239,-0.24185 0.586011,-0.24185 z"
         style="font-family:sans-serif;-inkscape-font-specification:sans-serif;fill:#000000;stroke:none"
         id="path41200" />
      <path
         d="m 44.905503,140.26668 q -0.04806,-0.0279 -0.10542,-0.0403 -0.05581,-0.0139 -0.124023,-0.0139 -0.241846,0 -0.372071,0.15813 -0.128674,0.15658 -0.128674,0.45114 v 0.91467 h -0.286804 v -1.73633 h 0.286804 v 0.26975 q 0.08992,-0.15813 0.234094,-0.23409 0.144177,-0.0775 0.350366,-0.0775 0.02946,0 0.06511,0.005 0.03566,0.003 0.07906,0.0109 z"
         style="font-family:sans-serif;-inkscape-font-specification:sans-serif;fill:#000000;stroke:none"
         id="path41202" />
      <path
         d="m 46.539511,140.631 v 0.84801 h 0.502295 q 0.252698,0 0.373621,-0.10387 0.122473,-0.10542 0.122473,-0.32091 0,-0.21704 -0.122473,-0.31936 -0.120923,-0.10387 -0.373621,-0.10387 z m 0,-0.95188 v 0.69763 h 0.463538 q 0.229443,0 0.341065,-0.0853 0.113171,-0.0868 0.113171,-0.26355 0,-0.17519 -0.113171,-0.262 -0.111622,-0.0868 -0.341065,-0.0868 z m -0.313159,-0.25735 h 0.799951 q 0.358118,0 0.551905,0.14883 0.193786,0.14883 0.193786,0.42323 0,0.21239 -0.09922,0.33796 -0.09922,0.12558 -0.291455,0.15658 0.230993,0.0496 0.358117,0.20774 0.128675,0.15658 0.128675,0.39223 0,0.31005 -0.21084,0.47904 -0.21084,0.16898 -0.599964,0.16898 h -0.830957 z"
         style="font-family:sans-serif;-inkscape-font-specification:sans-serif;fill:#000000;stroke:none"
         id="path41204" />
      <path
         d="m 49.114548,141.89759 q -0.120923,0.31006 -0.235644,0.40463 -0.114722,0.0946 -0.306958,0.0946 h -0.227893 v -0.23874 h 0.167431 q 0.117822,0 0.182935,-0.0558 0.06511,-0.0558 0.144177,-0.26355 l 0.05116,-0.13023 -0.702283,-1.70842 h 0.302307 l 0.542603,1.35806 0.542602,-1.35806 h 0.302307 z"
         style="font-family:sans-serif;-inkscape-font-specification:sans-serif;fill:#000000;stroke:none"
         id="path41206" />
      <path
         d="m 50.943894,140.20002 q -0.229444,0 -0.362769,0.17983 -0.133325,0.17829 -0.133325,0.48989 0,0.31161 0.131775,0.49145 0.133325,0.17828 0.364319,0.17828 0.227893,0 0.361218,-0.17983 0.133325,-0.17984 0.133325,-0.4899 0,-0.3085 -0.133325,-0.48834 -0.133325,-0.18138 -0.361218,-0.18138 z m 0,-0.24185 q 0.37207,0 0.58446,0.24185 0.21239,0.24184 0.21239,0.66972 0,0.42634 -0.21239,0.66973 -0.21239,0.24185 -0.58446,0.24185 -0.373621,0 -0.586011,-0.24185 -0.21084,-0.24339 -0.21084,-0.66973 0,-0.42788 0.21084,-0.66972 0.21239,-0.24185 0.586011,-0.24185 z"
         style="font-family:sans-serif;-inkscape-font-specification:sans-serif;fill:#000000;stroke:none"
         id="path41208" />
      <path
         d="m 53.219724,140.26668 q -0.04806,-0.0279 -0.10542,-0.0403 -0.05581,-0.0139 -0.124023,-0.0139 -0.241846,0 -0.372071,0.15813 -0.128674,0.15658 -0.128674,0.45114 v 0.91467 h -0.286804 v -1.73633 h 0.286804 v 0.26975 q 0.08992,-0.15813 0.234094,-0.23409 0.144177,-0.0775 0.350366,-0.0775 0.02946,0 0.06511,0.005 0.03566,0.003 0.07906,0.0109 z"
         style="font-family:sans-serif;-inkscape-font-specification:sans-serif;fill:#000000;stroke:none"
         id="path41210" />
      <path
         d="m 54.906443,140.68836 v 1.048 h -0.285254 v -1.0387 q 0,-0.24649 -0.09612,-0.36897 -0.09612,-0.12247 -0.288355,-0.12247 -0.230993,0 -0.364318,0.14728 -0.133326,0.14728 -0.133326,0.40152 v 0.98134 h -0.286804 v -1.73633 h 0.286804 v 0.26975 q 0.10232,-0.15658 0.240296,-0.23409 0.139526,-0.0775 0.32091,-0.0775 0.299207,0 0.452686,0.18604 0.153479,0.18448 0.153479,0.54415 z"
         style="font-family:sans-serif;-inkscape-font-specification:sans-serif;fill:#000000;stroke:none"
         id="path41212" />
    </g>
  </g>
</svg>
